<?xml version="1.0" encoding="utf-8"?>
<!-- Generator: Adobe Illustrator 24.3.0, SVG Export Plug-In . SVG Version: 6.00 Build 0)  -->
<svg version="1.1" id="Layer_1" xmlns="http://www.w3.org/2000/svg" xmlns:xlink="http://www.w3.org/1999/xlink" x="0px" y="0px"
	 viewBox="0 0 600 600" style="enable-background:new 0 0 600 600;" xml:space="preserve">
<g>
	<path d="M542.1,488.2c-3.3,5.2-5.7,11.4-10,15.5c-9.4,9-22.8,9.6-34,2.3c-10.9-7-21.6-14.2-32.2-21.5c-3.4-2.3-6.8-3.4-10.9-3.4
		c-45.6,0.1-91.1,0.1-136.7,0.1c-21.4,0-38-12.4-43.2-32c-0.8-3-1.4-6.2-1.4-9.3c-0.1-22.4-0.1-44.8-0.1-67.1c0-0.8,0.1-1.5,0.2-2.4
		c6.9-0.4,13.6-0.6,20.3-1.4c30.9-3.6,58.1-31.2,59.8-62.1c1.3-23.6,0.6-47.3,0.9-70.9c0-2,0-4.1,0-6.8c1.8,0,3.4,0,4.9,0
		c38.9,0,77.9-0.1,116.8,0c22.9,0,40,13.4,44.3,34.7c0.8,3.8,0.8,7.8,0.8,11.8c0,44.6,0,89.2,0.1,133.8c0,3.5,0.6,7.2,1.7,10.6
		c6.2,18.9,12.6,37.8,18.9,56.7C542.1,480.6,542.1,484.4,542.1,488.2z M439.4,424c9.4-0.1,15.9-8.9,13.2-17.9
		c-0.9-3-2.1-5.9-3.2-8.9c-11.7-31-23.4-62.1-35.1-93.1c-3-8.1-8.2-11.9-15.7-12c-7.3-0.1-12.9,3.4-15.7,10.7
		c-13.1,34-26.1,68.1-39,102.2c-2.9,7.7,0.9,15.5,8.1,18.2c7.4,2.8,14.8-0.6,18.1-8.3c1.8-4.3,3.2-8.9,5.3-13.1
		c0.7-1.4,2.7-3.1,4.2-3.1c12.3-0.2,24.6-0.2,36.9,0c1.5,0,3.7,1.6,4.3,3c2,4.2,3.3,8.8,5.1,13.2C428.4,420.9,433.1,424.1,439.4,424
		z"/>
	<path d="M326.4,215.6c0,27.6,0.1,55.2,0,82.7c-0.1,21.4-14,38.4-35,42.6c-3.7,0.7-7.5,0.7-11.3,0.7c-45.2,0-90.5,0-135.7,0.1
		c-2.9,0-6.2,1-8.7,2.6c-11,7-21.8,14.4-32.7,21.6c-11.5,7.5-23.9,7.4-33.9-0.3c-10.3-7.9-13.7-19.7-9.4-32.9
		c5.7-17.6,11.6-35.2,17.2-52.9c0.9-2.9,1.5-6.1,1.5-9.2c0.1-45.7,0-91.4,0.1-137.1c0-21.4,12.1-37.7,31.6-42.9
		c3.6-1,7.4-1.5,11.2-1.5c54.1-0.1,108.1-0.1,162.2,0c24.1,0,42.8,18.7,43,42.8C326.5,159.8,326.4,187.7,326.4,215.6z M255.4,253.2
		c0.2-1.6,0.2-1.9,0.4-2.2c0.4-0.8,0.9-1.6,1.4-2.5c7.2-13.5,9.6-27.8,7.1-42.9c-4.9-30.3-32.2-56.6-67.8-54.8
		c-35.4,1.8-62.1,29.2-63.2,63.6c-1.6,49.9,50,83.7,94.6,61.9c7.5-3.6,7.5-3.6,13.8,2.1c5.8,5.2,14.3,5.3,19.7,0.2
		c5.5-5.3,5.8-14,0.3-20C259.6,256.4,257.1,254.7,255.4,253.2z"/>
	<path d="M387.4,370.3c3.6-9.5,7-18.4,10.8-28.6c3.8,10.1,7.3,19.1,10.9,28.6C401.7,370.3,395,370.3,387.4,370.3z"/>
	<path d="M213.6,251.4c-14.6,7.5-34.6,2-45.1-12.5c-10.9-15-9.2-35.7,3.9-48.8c13.1-13.1,34-14.8,48.9-4
		c16.3,11.8,18.8,32.6,12.7,44.6c-4.9-4.6-9.2-10.7-17-9.2c-3.1,0.6-6.3,2.1-8.6,4.2c-4.1,3.6-5.4,8.9-3.1,13.8
		C207.1,243.7,210.6,247.3,213.6,251.4z"/>
</g>
</svg>
