<?xml version="1.0" encoding="utf-8"?>
<!-- Generator: Adobe Illustrator 24.3.0, SVG Export Plug-In . SVG Version: 6.00 Build 0)  -->
<svg version="1.1" id="Layer_1" xmlns="http://www.w3.org/2000/svg" xmlns:xlink="http://www.w3.org/1999/xlink" x="0px" y="0px"
	 viewBox="0 0 600 600" style="enable-background:new 0 0 600 600;" xml:space="preserve" fill="#ffffff">
<g>
	<path d="M299.6,300.2c0,50.3,0,100.6,0,150.9c0,13.8-7.9,23.3-20.6,24.7c-7.1,0.8-12.9-2-18.3-6.5c-37.4-31.1-75.1-61.9-112.3-93.3
		c-7-5.9-13.8-8.8-23.1-8.4c-17.1,0.7-34.2,0.3-51.3,0.2c-15.4-0.1-24.6-9.3-24.6-24.6c-0.1-28.8,0-57.6,0-86.4
		c0-15.3,9.4-24.7,24.6-24.8c20-0.1,40,0.1,60.1-0.1c2.5,0,5.4-1.1,7.4-2.7c39.7-32.7,79.2-65.5,118.9-98.3
		c11.9-9.9,26.1-8.9,34.8,2.4c3.8,4.9,4.5,10.6,4.5,16.6C299.6,200,299.6,250.1,299.6,300.2z"/>
	<path d="M353.2,380.2L353.2,380.2c-13.8-13.8-13.8-36.2,0-50.1l136.9-136.9c13.8-13.8,36.2-13.8,50.1,0l0,0
		c13.8,13.8,13.8,36.2,0,50.1L403.3,380.2C389.5,394,367.1,394,353.2,380.2z"/>
	<path d="M540.2,380.2L540.2,380.2c-13.8,13.8-36.2,13.8-50.1,0L353.2,243.3c-13.8-13.8-13.8-36.2,0-50.1l0,0
		c13.8-13.8,36.2-13.8,50.1,0l136.9,136.9C554,343.9,554,366.3,540.2,380.2z"/>
</g>
</svg>
