<?xml version="1.0" encoding="utf-8"?>
<!-- Generator: Adobe Illustrator 24.3.0, SVG Export Plug-In . SVG Version: 6.00 Build 0)  -->
<svg version="1.1" id="Layer_1" xmlns="http://www.w3.org/2000/svg" xmlns:xlink="http://www.w3.org/1999/xlink" x="0px" y="0px"
	 viewBox="0 0 600 600" style="enable-background:new 0 0 600 600;" xml:space="preserve">
<style type="text/css">
	.st0{fill:#396EB5;}
	.st1{fill:#FFFFFF;}
</style>
<g>
	<path class="st0" d="M549.5,300c0-137.8-111.7-249.5-249.5-249.5S50.5,162.2,50.5,300c0,124.5,91.2,227.7,210.5,246.4V372.1h-63.3
		V300H261v-55c0-62.5,37.2-97.1,94.2-97.1c27.3,0,55.8,4.9,55.8,4.9v61.4h-31.5c-31,0-40.7,19.2-40.7,39V300h69.2l-11.1,72.1H339
		v174.3C458.2,527.7,549.5,424.5,549.5,300z"/>
	<path class="st1" d="M397.1,372.1l11.1-72.1H339v-46.8c0-19.7,9.7-39,40.7-39h31.5v-61.4c0,0-28.5-4.9-55.8-4.9
		c-57,0-94.2,34.5-94.2,97.1v55h-63.3v72.1H261v174.3c12.7,2,25.7,3,39,3s26.3-1,39-3V372.1H397.1z"/>
</g>
</svg>
