<?xml version="1.0" encoding="utf-8"?>
<!-- Generator: Adobe Illustrator 24.3.0, SVG Export Plug-In . SVG Version: 6.00 Build 0)  -->
<svg version="1.1" id="Layer_1" xmlns="http://www.w3.org/2000/svg" xmlns:xlink="http://www.w3.org/1999/xlink" x="0px" y="0px"
	 viewBox="0 0 600 600" style="enable-background:new 0 0 600 600;" xml:space="preserve">
<g>
	<path d="M551,381.3c-1,8.4-1.5,16.9-3.1,25.1c-2.3,11.6-4.2,23.5-8.5,34.4c-9.9,25.2-39.1,32.2-59.8,18.6
		c-18-11.8-33.5-26.5-48.3-41.9c-8.6-8.9-16.9-18.2-25-27.6c-7.9-9.1-17.6-13.6-29.6-13.5c-50.8,0.1-101.6,0.1-152.4,0
		c-12.6,0-22.6,4.6-30.8,14.1c-18.6,21.7-38,42.7-60.6,60.4c-8,6.2-16.1,12.5-26.3,14.6c-18.7,3.9-35.7-4.7-44.8-22.1
		c-6-11.5-7.8-24.1-9.5-36.7c-3.5-24.8-4.1-49.8-2-74.7C55,275.7,71,223.2,104.6,177.2c15.2-20.9,35-35.9,60.9-41.4
		c23.6-5,46.1-0.9,67.7,8.7c9.2,4.1,17.9,9.4,26.5,14.6c7.6,4.7,15.6,8.5,24.5,8.8c11.6,0.3,23.3,1,34.7-0.6
		c7.7-1.1,15.6-4.8,22.3-9.1c21.2-13.7,43.9-23.1,69.2-24.4c26.2-1.4,49,7.5,68.4,25c17,15.2,28.6,34.2,38.7,54.3
		c17.5,34.9,27.8,71.9,31.6,110.7c0.5,5.2,1.3,10.3,1.9,15.5C551,353.2,551,367.3,551,381.3z M205.2,281.2c7.9,0,15.1,0,22.2,0
		c13.8,0,15.7-1.6,17.6-15.5c0.1-0.5,0.2-1,0.1-1.5c-1.7-5.5-2.6-11.6-5.7-16.3c-1.3-2-7.1-1.3-10.9-1.6c-3.2-0.2-6.5,0-9.8,0
		c-4,0-8,0-12.2,0c0-10.6-0.1-20.3,0.1-30.1c0-2.7-0.7-4.1-3.4-5c-8.4-2.9-16.8-3.4-25.5-1.5c-4.5,1-6.4,3-6.1,7.9
		c0.5,9.4,0.1,18.8,0.1,28.6c-10.6,0-20.5,0.1-30.4-0.1c-3.1-0.1-4.7,1.1-5.8,3.9c-2.7,6.7-3.2,13.7-1.8,20.7
		c2.1,9.8,2.9,10.4,12.8,10.4c4.1,0,8.2,0,12.2,0c3.8,0,7.7,0,11.8,0c0,9.9,0.2,19-0.1,28.2c-0.1,3.9,1.5,6,4.7,7.5
		c8.4,3.9,16.7,3.3,25.1,0c3.5-1.3,5-3.2,4.9-7.2C205,300.5,205.2,291.2,205.2,281.2z M465.1,230.1c-15.1,0.1-26.9,12-26.8,27.1
		c0.1,14.8,12.5,27.2,27.2,27c14.8-0.2,26.8-12.4,26.8-27.4C492.2,241.8,480.3,230,465.1,230.1z M397.3,189.9
		c-15.1,0.1-26.8,11.9-26.7,27.2c0.1,14.9,12.5,27.1,27.2,26.9c14.9-0.2,26.9-12.5,26.8-27.4C424.5,201.6,412.5,189.9,397.3,189.9z
		 M397.7,318.7c15,0,27-12.1,26.9-27.1c-0.1-14.9-12.3-27-27.2-26.9c-14.9,0.1-26.8,12.1-26.8,27.2
		C370.6,307,382.5,318.7,397.7,318.7z"/>
</g>
</svg>
