<?xml version="1.0" encoding="utf-8"?>
<!-- Generator: Adobe Illustrator 24.3.0, SVG Export Plug-In . SVG Version: 6.00 Build 0)  -->
<svg version="1.1" id="Layer_1" xmlns="http://www.w3.org/2000/svg" xmlns:xlink="http://www.w3.org/1999/xlink" x="0px" y="0px"
	 viewBox="0 0 600 600" style="enable-background:new 0 0 600 600;" xml:space="preserve">
<g>
	<path d="M550,302.9c-2.5,3.2-4.8,6.5-7.6,9.5c-37.2,40.4-78.8,75.2-127.3,101.3c-28.3,15.2-58,26.4-90,30.4
		c-30.4,3.9-60.4,1.2-89.8-7.3c-13.1-3.8-25.8-8.8-38.5-13.6c-2.9-1.1-4.5-0.8-6.7,1.4c-18.9,19.1-37.9,38-56.9,57
		c-1.4,1.4-2.8,2.8-4.3,3.9c-4.4,3-9.7,2.4-13.3-1.4c-3.4-3.6-3.9-8.8-0.9-13c1.1-1.6,2.6-2.9,3.9-4.3
		c37.7-37.7,75.5-75.5,113.2-113.2c53.3-53.3,106.5-106.5,159.8-159.8c25-25,49.9-49.9,74.9-74.9c0.9-0.9,1.8-1.9,2.8-2.8
		c5-4.6,10.9-4.8,15.2-0.5c4.3,4.3,4.3,10.3-0.5,15.2c-12.5,12.8-25.3,25.4-37.9,38c-7.3,7.4-14.7,14.7-21.9,21.9
		c13,8.6,26,16.7,38.4,25.6c30.5,21.9,58.3,46.9,83.3,74.9c1.6,1.8,2.9,3.9,4.3,5.8C550,299,550,301,550,302.9z M525.8,300.3
		c-1.2-1.4-1.7-2-2.3-2.6c-4.5-4.7-9-9.4-13.7-13.9c-29.1-28.6-60.9-53.8-96.2-74.4c-3.8-2.2-6.1-2.4-9.4,1.1
		c-9.5,10.1-19.4,19.7-29.2,29.4c-3,2.9-6.2,5.6-9.1,8.3c26.9,36.8,20.3,80.6-3.2,106.8c-12.2,13.6-27.1,22.7-45.1,26.4
		c-25.1,5.2-48-0.3-67.9-14.9C236.1,380,223,393,209.8,406.1c0.3,0.1,0.8,0.5,1.4,0.7c26.9,11,54.8,17.4,83.9,18.1
		c32.7,0.8,63.3-7.6,92.8-21.1c42.6-19.6,79.4-47.5,113.4-79.3C509.5,316.7,517.4,308.5,525.8,300.3z M265.1,351.3
		c19.2,15.1,55.5,17.2,79.9-8c24.6-25.5,20.4-61.6,6.4-78.3C322.6,293.8,293.8,322.6,265.1,351.3z"/>
	<path d="M74,301c6.8,7.8,13.5,15.7,20.6,23.3c18.9,20.1,39.7,38,62.4,53.7c2.6,1.8,5.1,4.7,6.2,7.7c1.5,4.1-0.2,8.1-3.9,10.7
		c-4,2.9-8.4,2.8-12.3-0.2c-12.9-9.7-26-19-38.3-29.4c-20.1-16.9-38-36-53.9-56.9c-6.6-8.7-6.6-11.7,0.8-19.9
		c40.1-44,85.2-81.6,138.7-108.4c36.1-18,74.1-29,115-27c19.9,1,39.3,5.1,58.1,11.5c6.3,2.1,9.2,7.6,7.4,13.3
		c-1.8,5.6-7.4,8.5-13.8,6.4c-21.3-6.9-43.1-11.3-65.6-10.6c-31.8,1-61.4,10.2-89.6,24.2c-50,24.6-92.1,59.5-130.3,99.6
		C75.2,299.3,74.8,299.9,74,301z"/>
	<path d="M216.5,298.9c1-51,46.8-89.4,97.1-80.9c6.2,1,10.2,5.8,9.5,11.5c-0.7,5.8-5.4,9.9-11.7,9c-11.9-1.7-23.3-1-34.4,3.6
		c-26.9,10.9-42.4,37.7-38.6,66.4c0.3,2.5,0.4,5.3-0.2,7.7c-1.1,4.2-5.8,7.2-10.1,7c-4.8-0.2-9-3.7-9.8-8.7
		C217.4,309.3,217.1,304.1,216.5,298.9z"/>
</g>
</svg>
