<?xml version="1.0" encoding="utf-8"?>
<!-- Generator: Adobe Illustrator 24.3.0, SVG Export Plug-In . SVG Version: 6.00 Build 0)  -->
<svg version="1.1" id="Layer_1" xmlns="http://www.w3.org/2000/svg" xmlns:xlink="http://www.w3.org/1999/xlink" x="0px" y="0px"
	 viewBox="0 0 600 600" style="enable-background:new 0 0 600 600;" xml:space="preserve" fill="#023d88">
<g>
	<path d="M536.4,289.9c0,3.4,0,6.8,0,10.2c-0.3,0.5-0.6,1.1-0.8,1.6c-4,11.7-12,17.7-24.4,18.2c-5.7,0.2-11.4,0-17.1,0.1
		c-5.5,0-11,0-16.8,0c0,2.4,0,4.2,0,6.1c0,57.1,0,114.2,0,171.3c0,16.6-10.3,31.2-25.8,36.9c-2.4,0.9-4.9,1.6-7.4,2.3
		c-96.3,0-192.6,0-288.9,0c-0.3-0.3-0.7-0.7-1-0.8c-16.4-2.9-31.6-19-31.4-41c0.5-56.3,0.2-112.6,0.2-168.9c0-1.8,0-3.6,0-5.8
		c-11.1,0-21.7,0-32.3,0c-6.5,0-12.5-1.3-17.6-5.5c-11.9-9.8-12.5-26.6-1-37.7c35.3-34,70.8-67.9,106.2-101.9
		c36.8-35.2,73.5-70.5,110.3-105.7c7.9-7.5,15.4-7.5,23.5,0c0.7,0.6,1.3,1.3,2,1.9c69.7,66.8,139.4,133.7,209.2,200.5
		C528.7,277,533.9,282.4,536.4,289.9z"/>
</g>
</svg>
