<?xml version="1.0" encoding="utf-8"?>
<!-- Generator: Adobe Illustrator 24.3.0, SVG Export Plug-In . SVG Version: 6.00 Build 0)  -->
<svg version="1.1" id="Layer_1" xmlns="http://www.w3.org/2000/svg" xmlns:xlink="http://www.w3.org/1999/xlink" x="0px" y="0px"
	 viewBox="0 0 600 600" style="enable-background:new 0 0 600 600;" xml:space="preserve">
<style type="text/css">
	.st0{clip-path:url(#SVGID_2_);fill:#4E79BC;}
	.st1{clip-path:url(#SVGID_4_);fill:#30A754;}
	.st2{clip-path:url(#SVGID_6_);fill:#F9BC07;}
	.st3{clip-path:url(#SVGID_8_);fill:#E84336;}
</style>
<g>
	<g>
		<defs>
			<path id="SVGID_1_" d="M542,305.6c0-17.5-1.6-34.3-4.5-50.5H304.9v95.5h132.9c-5.7,30.9-23.1,57-49.3,74.5v62h79.8
				C515.1,444.1,542,380.8,542,305.6L542,305.6L542,305.6z M542,305.6"/>
		</defs>
		<clipPath id="SVGID_2_">
			<use xlink:href="#SVGID_1_"  style="overflow:visible;"/>
		</clipPath>
		<rect x="167.8" y="117.9" class="st0" width="511.4" height="506.4"/>
	</g>
	<g>
		<defs>
			<path id="SVGID_3_" d="M304.9,546.9c66.7,0,122.6-22.1,163.4-59.8l-79.8-62c-22.1,14.8-50.4,23.6-83.6,23.6
				c-64.3,0-118.8-43.4-138.2-101.8H84.3v64C124.9,491.6,208.4,546.9,304.9,546.9L304.9,546.9L304.9,546.9z M304.9,546.9"/>
		</defs>
		<clipPath id="SVGID_4_">
			<use xlink:href="#SVGID_3_"  style="overflow:visible;"/>
		</clipPath>
		<rect x="-52.9" y="209.7" class="st1" width="658.5" height="474.4"/>
	</g>
	<g>
		<defs>
			<path id="SVGID_5_" d="M166.8,346.9c-4.9-14.8-7.7-30.6-7.7-46.9c0-16.3,2.8-32.1,7.7-46.9v-64H84.3C67.5,222.4,58,260.2,58,300
				s9.5,77.6,26.3,110.9L166.8,346.9L166.8,346.9L166.8,346.9z M166.8,346.9"/>
		</defs>
		<clipPath id="SVGID_6_">
			<use xlink:href="#SVGID_5_"  style="overflow:visible;"/>
		</clipPath>
		<rect x="-79.2" y="51.9" class="st2" width="383.1" height="496.2"/>
	</g>
	<g>
		<defs>
			<path id="SVGID_7_" d="M304.9,151.3c36.3,0,68.8,12.5,94.4,36.9l70.8-70.8c-42.8-39.8-98.7-64.3-165.2-64.3
				c-96.5,0-180,55.3-220.7,136l82.5,64C186.2,194.7,240.6,151.3,304.9,151.3L304.9,151.3L304.9,151.3z M304.9,151.3"/>
		</defs>
		<clipPath id="SVGID_8_">
			<use xlink:href="#SVGID_7_"  style="overflow:visible;"/>
		</clipPath>
		<rect x="-52.9" y="-84.1" class="st3" width="660.3" height="474.4"/>
	</g>
</g>
</svg>
