<?xml version="1.0" encoding="utf-8"?>
<!-- Generator: Adobe Illustrator 24.3.0, SVG Export Plug-In . SVG Version: 6.00 Build 0)  -->
<svg version="1.1" id="Layer_1" xmlns="http://www.w3.org/2000/svg" xmlns:xlink="http://www.w3.org/1999/xlink" x="0px" y="0px"
	 viewBox="0 0 600 600" style="enable-background:new 0 0 600 600;" xml:space="preserve">
<path d="M498,462.6c0,19.4-15.9,35.4-35.4,35.4H137.4c-19.4,0-35.4-15.9-35.4-35.4V246.5c0-2,0.9-4,2.4-5.3
	c23.2-20.3,23.4-22.8,138.8-107c13.9-10.2,38.5-32.3,56.8-32.3s43.1,22.3,56.8,32.3c115.4,84.2,115.6,86.6,138.8,107
	c1.5,1.3,2.4,3.3,2.4,5.3V462.6z M449.6,320.1c3.1-2.2,3.8-6.6,1.3-9.7l-8.4-11.5c-2.4-3.1-6.9-3.8-9.9-1.3
	c-17.5,12.8-41.3,30.5-75.8,55.2c-13.7,9.9-38.5,32-56.8,32s-43.1-22.1-56.8-32c-34.5-25-58.3-42.4-75.8-55.2
	c-3.1-2.4-7.5-1.8-9.9,1.3l-8.4,11.5c-2.4,3.1-1.8,7.5,1.3,9.7c17.7,13.3,41.8,30.7,76.2,55.7c17.2,12.4,44.4,37.3,73.4,37.3
	c29.2,0,57-25.4,73.4-37.3C407.8,350.8,431.9,333.4,449.6,320.1z"/>
</svg>
