<?xml version="1.0" encoding="utf-8"?>
<!-- Generator: Adobe Illustrator 24.3.0, SVG Export Plug-In . SVG Version: 6.00 Build 0)  -->
<svg version="1.1" id="Layer_1" xmlns="http://www.w3.org/2000/svg" xmlns:xlink="http://www.w3.org/1999/xlink" x="0px" y="0px"
	 viewBox="0 0 600 600" style="enable-background:new 0 0 600 600;" xml:space="preserve">
<path d="M475.9,443c-5.5,12.8-20.1,21.2-31.9,27.7c-15.4,8.4-31.1,13.3-48.6,13.3c-24.3,0-46.3-9.9-68.5-18
	c-15.9-5.8-31.4-12.8-45.7-21.7c-44.4-27.4-98-81-125.5-125.5c-8.9-14.4-15.9-29.8-21.7-45.7c-8.1-22.2-18-44.2-18-68.5
	c0-17.5,5-33.2,13.3-48.6c6.5-11.8,14.9-26.4,27.7-31.9c8.6-3.9,26.9-8.1,36.3-8.1c1.8,0,3.7,0,5.5,0.8c5.5,1.8,11.2,14.6,13.9,19.9
	c8.4,14.9,16.5,30.1,25.1,44.7c4.2,6.8,12,15.2,12,23.3c0,15.9-47.3,39.2-47.3,53.3c0,7.1,6.5,16.2,10.2,22.5
	c26.4,47.6,59.3,80.5,106.9,106.9c6.3,3.7,15.4,10.2,22.5,10.2c14.1,0,37.4-47.3,53.3-47.3c8.1,0,16.5,7.8,23.3,12
	c14.6,8.6,29.8,16.7,44.7,25.1c5.2,2.6,18,8.4,19.9,13.9c0.8,1.8,0.8,3.7,0.8,5.5C484,416,479.8,434.3,475.9,443z"/>
</svg>
