<?xml version="1.0" encoding="utf-8"?>
<!-- Generator: Adobe Illustrator 24.3.0, SVG Export Plug-In . SVG Version: 6.00 Build 0)  -->
<svg version="1.1" id="Layer_1" xmlns="http://www.w3.org/2000/svg" xmlns:xlink="http://www.w3.org/1999/xlink" x="0px" y="0px"
	 viewBox="0 0 600 600" style="enable-background:new 0 0 600 600;" xml:space="preserve">
<g>
	<path d="M546.6,549.5h-32.2c-1.8,0-3.3-1.4-3.3-3.3c-2.4-65.3-28.3-119.1-79.1-160.5c-41.4-33.8-89.4-48.9-142.7-46.4
		c-106.1,4.8-198.1,92.5-200.4,206.9c0,1.8-1.5,3.3-3.3,3.3H53.4c-1.9,0-3.4-1.5-3.4-3.4v-10.9c0-0.2,0-0.5,0.1-0.7
		c0.3-1.3,0.7-2.5,0.7-3.8c1.7-25.8,7.3-50.8,17.3-74.6c28.2-67.1,76.4-113.8,144.2-140.4c0,0,0,0,0.1,0c2.4-0.9,2.9-4.2,0.8-5.8
		c-0.1-0.1-0.2-0.1-0.3-0.2c-36.2-28.4-55.8-65.4-57.3-111.3c-1-30,7-57.9,23.8-82.9c19.8-29.6,46.8-49.8,81.3-59.3
		c9.3-2.6,19-3.8,28.6-5.6c6.8-0.1,13.3-0.2,20.1-0.3c8,1.4,16.1,2.1,23.9,4.1c54.2,14.4,90.9,48.1,105.7,102.1
		c15.5,56.5-0.3,105.4-42.9,145.6c-4.2,3.9-8.9,7.3-13.3,11c0.3,0.4,0.3,0.6,0.4,0.7c0.9,0.4,1.7,0.9,2.6,1.2
		c33.8,12.3,63.6,31.1,89.2,56.3c37.9,37.4,61.9,82.2,71.1,134.7c1.7,9.5,2.6,19.1,3.9,28.6c0,0.1,0,0.3,0,0.4v11
		C550,548,548.5,549.5,546.6,549.5z M299.8,89.5c-58,0.2-105.2,47.4-105.3,105.2c-0.1,57.9,47.6,105.5,105.6,105.3
		c58-0.2,105.2-47.4,105.3-105.2C405.5,136.9,357.8,89.4,299.8,89.5z"/>
</g>
</svg>
