<?xml version="1.0" encoding="utf-8"?>
<!-- Generator: Adobe Illustrator 24.3.0, SVG Export Plug-In . SVG Version: 6.00 Build 0)  -->
<svg version="1.1" id="Layer_1" xmlns="http://www.w3.org/2000/svg" xmlns:xlink="http://www.w3.org/1999/xlink" x="0px" y="0px"
	 viewBox="0 0 600 600" style="enable-background:new 0 0 600 600;" xml:space="preserve">
<g>
	<path d="M293.2,550c-4.2-1.5-8.7-2.7-12.7-4.7c-17.1-8.4-27.1-27.5-24.1-45.6c3.3-19.8,18.3-34.6,37.9-37.4
		c18.2-2.6,36.7,7.3,44.9,24.4c1.7,3.5,3.5,4.8,7.5,4.8c22.4-0.2,44.9-0.1,67.4-0.1c27.6,0,46.9-19.3,47.1-46.9
		c0.1-13.8,0-27.6,0-41.7c-9.9,0-19.3,0-29.2,0c0,9.5,0,18.9,0,28.6c-9.8,0-19.3,0-29.1,0c0-68,0-135.9,0-204.2c9.4,0,18.9,0,28.9,0
		c0,9.5,0,19,0,28.7c9.9,0,19.3,0,29.3,0c2.4-58.4-16.9-107.8-64.1-143.1c-54-40.4-113.3-45.6-172.6-13.5
		c-61.1,33-87,87.5-85.4,156.5c9.8,0,19.3,0,29.3,0c0-9.4,0-18.9,0-28.6c9.9,0,19.3,0,29,0c0,68,0,136.1,0,204.4
		c-9.4,0-18.8,0-28.7,0c0-9.4,0-18.9,0-29c-4.4,0-8.2,0-12,0c-10.7,0-21.5,0-32.2,0c-24.3-0.1-43.7-19.4-43.8-43.6
		c-0.1-19.2-0.1-38.4,0-57.6c0-19.6,9.2-33.3,26.9-41.5c0.7-0.3,1.4-0.7,3.3-1.7c0-11.1-0.8-22.9,0.2-34.5
		c3.7-42.7,20.6-79.9,49.4-111.5c29.8-32.5,66.7-52.4,110.1-59.7c86.1-14.5,173.9,35.7,206.4,117.6c10.6,26.9,14.8,54.7,13.7,83.5
		c-0.1,3.7,0.9,5.5,4.4,7.3c16.2,8.2,24.8,21.5,24.9,39.8c0.1,19,0.1,38.1,0,57.1c-0.1,19-8.9,32.5-25.8,40.7
		c-2.9,1.4-3.6,2.9-3.5,5.8c0.1,14.5,0.1,29,0,43.4c-0.2,39.9-33.3,72.9-73.1,73c-23.4,0.1-46.9,0-70.3,0c-1.8,0-3.6,0-5.4,0
		c-5.7,14.1-15.5,23.6-30.1,27.9c-1.5,0.4-3,1-4.6,1.4C302.3,550,297.7,550,293.2,550z"/>
</g>
</svg>
