<?xml version="1.0" encoding="utf-8"?>
<!-- Generator: Adobe Illustrator 24.3.0, SVG Export Plug-In . SVG Version: 6.00 Build 0)  -->
<svg version="1.1" id="Layer_1" xmlns="http://www.w3.org/2000/svg" xmlns:xlink="http://www.w3.org/1999/xlink" x="0px" y="0px"
	 viewBox="0 0 600 600" style="enable-background:new 0 0 600 600;" xml:space="preserve">
<g>
	<path d="M310.7,49.9c7.9,1.6,16,2.7,23.8,5c53.4,15.4,90,63.6,90.5,119.3c0.2,19.2,0,38.4,0,57.6c0,1.7,0,3.5,0,5.3
		c8.2,0.4,16.1,0.2,23.7,1.4c21.5,3.2,38.1,22.2,38.7,43.9c0.3,11.6,0.1,23.1,0.1,34.7c0,61.7,0,123.4,0,185.1
		c0,22.4-13.7,40.6-34.8,46.2c-4.3,1.2-9,1.6-13.5,1.6c-92.8,0.1-185.6,0.1-278.4,0c-28,0-48.3-20.4-48.3-48.4
		c-0.1-72-0.1-143.9,0-215.9c0-28,20.4-48.2,48.5-48.3c4.5,0,9,0,14,0c0-2.5,0-4.6,0-6.7c0.2-22.9-1-46,1-68.8
		c4.8-54,44.4-97.5,97.5-109.2c5.2-1.2,10.5-1.9,15.8-2.9C296.4,49.9,303.6,49.9,310.7,49.9z M300,268.7c-46.1,0-92.1,0-138.2,0
		c-11.9,0-18.1,6.1-18.1,18c0,71.3,0,142.6,0,213.9c0,12.2,6,18.2,18.3,18.2c92,0,184,0,276,0c12.3,0,18.3-6,18.3-18.2
		c0-71.1,0-142.3,0-213.4c0-12.6-5.9-18.4-18.6-18.4C391.8,268.7,345.9,268.7,300,268.7z M393.6,237.3c0-23,0.8-45.5-0.2-67.9
		c-2-47.1-41.6-86-88.4-88.1c-54.3-2.4-98.6,39.8-98.8,94.1c-0.1,19.2,0,38.4,0,57.6c0,1.4,0.2,2.8,0.3,4.3
		C269,237.3,331.1,237.3,393.6,237.3z"/>
</g>
</svg>
