<?xml version="1.0" encoding="utf-8"?>
<!-- Generator: Adobe Illustrator 24.3.0, SVG Export Plug-In . SVG Version: 6.00 Build 0)  -->
<svg version="1.1" id="Layer_1" xmlns="http://www.w3.org/2000/svg" xmlns:xlink="http://www.w3.org/1999/xlink" x="0px" y="0px"
	 viewBox="0 0 600 600" style="enable-background:new 0 0 600 600;" xml:space="preserve">
<g>
	<path d="M550,303.9c-44.2,50.3-94.8,92.3-156.2,120.3c-34.5,15.7-70.6,24-108.7,21.1c-28.1-2.2-54.7-10.3-80.3-21.9
		c-45.2-20.5-84.4-49.7-120.2-83.7c-10.7-10.2-20.7-21.1-30.9-31.9c-4.8-5.1-4.9-10.2-0.3-15.2c43.5-48.3,92.8-89.1,152.3-116.4
		c36.2-16.6,74.1-24.7,114-21.4c41.4,3.4,79.9,16.5,115.7,37.3c43.2,25.2,79.6,58.2,110,97.9c1.5,2,3.1,4,4.6,6
		C550,298.7,550,301.3,550,303.9z M526.6,300.3c-16.5-20.8-33.9-38.6-52.9-54.6c-33.8-28.5-71.1-50.7-114-62.3
		c-25.8-7-52-10.1-78.6-7c-30.5,3.5-58.8,14.2-85.8,28.6c-38.3,20.5-71.9,47.2-103,77.3C86.4,288,80.7,294,75,299.8
		c0.9,1.1,1.3,1.7,1.7,2.1c35.8,37.5,75.3,70.3,121.3,94.6c29,15.3,59.4,25.9,92.4,28c29.8,1.8,58.1-4.6,85.5-15.7
		c38.4-15.5,72.3-38.3,103.5-65.1C495.5,329.8,510.7,314.9,526.6,300.3z"/>
	<path d="M300.2,216.6c46,0.1,83.4,37.5,83.3,83.4c0,46-37.5,83.4-83.4,83.4c-46-0.1-83.4-37.5-83.3-83.4
		C216.8,254,254.3,216.6,300.2,216.6z M300.1,237.6c-34.1,0.1-62.4,28.5-62.4,62.5c0.1,34.1,28.5,62.4,62.5,62.4
		c34.1-0.1,62.4-28.4,62.4-62.6C362.6,265.9,334.1,237.5,300.1,237.6z"/>
</g>
</svg>
