<?xml version="1.0" encoding="utf-8"?>
<!-- Generator: Adobe Illustrator 24.3.0, SVG Export Plug-In . SVG Version: 6.00 Build 0)  -->
<svg version="1.1" id="Layer_1" xmlns="http://www.w3.org/2000/svg" xmlns:xlink="http://www.w3.org/1999/xlink" x="0px" y="0px"
	 viewBox="0 0 600 600" style="enable-background:new 0 0 600 600;" xml:space="preserve">
<g>
	<path d="M463.2,550c-108.8,0-217.6,0-326.3,0c-0.9-0.3-1.8-0.8-2.7-0.9c-41.3-6.8-68.1-30.3-80.8-70c-1.6-4.9-2.3-10-3.5-15
		c0-96.7,0-193.4,0-290.1c0.3-0.9,0.8-1.7,0.9-2.7c2.8-19.9,11.1-37.3,24.8-51.9c20.4-21.8,45.9-31.6,75.6-31.2c4.5,0.1,9,0,13.9,0
		c0-6.5,0-12.3,0-18.1c0.1-11.6,8.4-20.1,19.4-20.1c11.2,0,19.6,8.6,19.7,20.4c0,5.8,0,11.6,0,17.5c64.1,0,127.7,0,191.6,0
		c0-6,0-11.7,0-17.3c0.1-11.9,8.3-20.5,19.5-20.5c11.2,0,19.4,8.5,19.6,20.4c0,5.8,0,11.6,0,18.5c9.7,0,18.8-0.6,27.9,0.1
		c48.8,4.1,87.3,45.9,87.4,94.8c0.1,90,0.1,180,0,270c0,39.5-24.3,75.1-61.2,89.3C480.6,546.3,471.7,547.8,463.2,550z M88.9,243.1
		c0,2.1,0,3.9,0,5.6c0,67.4,0,134.8,0,202.2c0,34.7,24.8,60,59.5,60c101.1,0.1,202.2,0.1,303.3,0c34.4,0,59.3-25.3,59.3-59.7
		c0-67.6,0-135.1,0-202.7c0-1.7,0-3.5,0-5.5C370.1,243.1,229.7,243.1,88.9,243.1z M510.8,203.2c5.8-58.9-33.7-81.3-75.9-74.8
		c0,12.3,0.1,24.6,0,36.9c-0.1,11.2-8.4,19.6-19.3,19.8c-10.9,0.1-19.7-8.6-19.7-19.8c-0.1-10.9,0-21.8,0-32.7c0-1.6,0-3.1,0-4.7
		c-64.2,0-127.6,0-191.6,0c0,2,0,3.7,0,5.5c0,10.9,0.1,21.8,0,32.7c-0.2,10.6-9,19.1-19.5,19c-10.6,0-19.3-8.4-19.4-19.1
		c-0.1-7.8,0-15.6,0-23.4c0-4.8,0-9.7,0-14.4c-55.6-7.1-82.3,30.4-75.5,75C230,203.2,370.2,203.2,510.8,203.2z"/>
	<path d="M414.8,339c-6.3,0-12.7,0.1-19,0c-10.6-0.2-19.2-8.8-19.3-19.3c-0.1-10.6,8.6-19.6,19.4-19.7c13-0.1,26-0.1,39,0
		c10.7,0.1,19.2,8.7,19.3,19.3c0.1,10.7-8.5,19.5-19.4,19.7C428.1,339.1,421.5,339,414.8,339z"/>
	<path d="M300.1,415.2c6.5,0,13-0.1,19.5,0c10.6,0.2,19.2,8.9,19.1,19.5c0,10.4-8.6,19.4-19.1,19.5c-13.2,0.2-26.4,0.2-39.5,0
		c-10.6-0.1-19.1-9-19.1-19.5c0-10.6,8.4-19.2,19.1-19.4C286.8,415.1,293.4,415.2,300.1,415.2z"/>
	<path d="M184.2,339c-6.3,0-12.7,0.1-19,0c-10.9-0.2-19.5-9-19.4-19.7c0.1-10.6,8.7-19.2,19.3-19.3c13-0.1,26-0.1,39,0
		c10.8,0.1,19.6,9,19.5,19.7c-0.1,10.5-8.7,19.1-19.3,19.3C197.6,339.1,190.9,339,184.2,339z"/>
	<path d="M299.9,300c6.5,0,13-0.1,19.5,0c10.6,0.1,19.2,8.7,19.3,19.3c0.2,10.6-8.6,19.6-19.4,19.7c-13,0.1-26,0.1-39,0
		c-10.9-0.1-19.4-9-19.3-19.8c0.2-10.6,8.7-19.1,19.4-19.2C286.9,299.9,293.4,300,299.9,300z"/>
	<path d="M184.5,454.3c-6.5,0-13,0.1-19.5,0c-10.6-0.2-19.2-8.9-19.3-19.4c-0.1-10.6,8.3-19.4,19-19.6c13.3-0.2,26.7-0.2,40,0
		c10.3,0.1,18.7,8.9,18.8,19.3c0.1,10.4-8.5,19.4-19,19.7C197.9,454.4,191.2,454.3,184.5,454.3z"/>
	<path d="M415.4,415.2c6.7,0,13.3-0.1,20,0c10.4,0.3,18.7,8.9,18.8,19.2c0.1,10.4-8.4,19.5-18.9,19.7c-13.3,0.2-26.7,0.2-40,0
		c-10.3-0.2-18.7-9-18.8-19.3c-0.1-10.4,8.4-19.4,19-19.6C402.1,415.1,408.7,415.2,415.4,415.2z"/>
</g>
</svg>
