<?xml version="1.0" encoding="utf-8"?>
<!-- Generator: Adobe Illustrator 24.3.0, SVG Export Plug-In . SVG Version: 6.00 Build 0)  -->
<svg version="1.1" id="Layer_1" xmlns="http://www.w3.org/2000/svg" xmlns:xlink="http://www.w3.org/1999/xlink" x="0px" y="0px"
	 viewBox="0 0 600 600" style="enable-background:new 0 0 600 600;" xml:space="preserve" fill="#ffffff">
<g>
	<path d="M300.4,482.8c-56.2,0-112.4,0-168.5,0c-24.2,0-42.9-14.6-47.6-37.3c-2.7-13,0-25.1,7.4-36.2c11.5-17.2,23-34.4,34.2-51.7
		c1.6-2.5,2.6-5.9,2.6-8.8c0.2-42.4,0.1-84.9,0.1-127.3c0.1-75.6,46.1-139.6,117.8-164C340.6,25.4,445.7,84.6,466.5,182
		c2.8,13.1,4.1,26.8,4.3,40.3c0.5,42.1,0.1,84.2,0.3,126.3c0,3.1,1.1,6.7,2.8,9.3c11,16.9,22.2,33.6,33.5,50.3
		c10.8,16,12.7,32.9,3.5,50c-9.2,17.2-24.4,24.7-43.7,24.7C411.7,482.8,356,482.8,300.4,482.8z"/>
	<path d="M235.9,505.8c42.8,0,85.2,0,127.7,0c-5.2,24-34,44.8-62.9,45.5C272.2,552,242.6,531.3,235.9,505.8z"/>
</g>
</svg>
