<?xml version="1.0" encoding="utf-8"?>
<!-- Generator: Adobe Illustrator 24.3.0, SVG Export Plug-In . SVG Version: 6.00 Build 0)  -->
<svg version="1.1" id="Layer_1" xmlns="http://www.w3.org/2000/svg" xmlns:xlink="http://www.w3.org/1999/xlink" x="0px" y="0px"
	 viewBox="0 0 600 600" style="enable-background:new 0 0 600 600;" xml:space="preserve">
<style type="text/css">
	.st0{fill:#32A753;}
	.st1{fill:#FFFFFF;}
</style>
<circle class="st0" cx="300" cy="300" r="282"/>
<g>
	<path class="st1" d="M436.9,246.1L304.2,378.8l-24.9,24.9c-3.3,3.3-7.9,5.1-12.5,5.1c-4.6,0-9.2-1.8-12.5-5.1l-24.9-24.9
		l-66.3-66.3c-3.3-3.3-5.1-7.9-5.1-12.5c0-4.6,1.8-9.2,5.1-12.5l24.9-24.9c3.3-3.3,7.9-5.1,12.5-5.1c4.6,0,9.2,1.8,12.5,5.1
		l53.9,54.1L387,196.3c3.3-3.3,7.9-5.1,12.5-5.1s9.2,1.8,12.5,5.1l24.9,24.9c3.3,3.3,5.1,7.9,5.1,12.5
		C442,238.3,440.2,242.8,436.9,246.1z"/>
</g>
</svg>
