<?xml version="1.0" encoding="utf-8"?>
<!-- Generator: Adobe Illustrator 24.3.0, SVG Export Plug-In . SVG Version: 6.00 Build 0)  -->
<svg version="1.1" id="Layer_1" xmlns="http://www.w3.org/2000/svg" xmlns:xlink="http://www.w3.org/1999/xlink" x="0px" y="0px"
	 viewBox="0 0 600 600" style="enable-background:new 0 0 600 600;" xml:space="preserve" fill="#ffffff">
<g>
	<path d="M550.1,316.9c-1.3,10.5-2.2,21-4,31.4c-8.8,52.5-30.2,99.3-64.4,140.1c-8.6,10.2-21.9,11.4-31.8,3.5
		c-12.6-10-15.3-23-6.6-34.5c11.4-15.1,22.4-30.3,30.9-47.3c12.4-24.7,20.6-50.6,24-77.9c7.9-63.2-6.8-120.8-43.5-172.7
		c-5.1-7.2-11-13.7-16.3-20.7c-7.1-9.6-5.9-21.1,2.8-30.1c9.2-9.7,20.8-11.6,30.7-5.1c1.9,1.2,3.6,2.8,5.1,4.5
		c36.9,42.4,60.2,91.2,69.1,146.7c1.6,9.9,2.6,20,3.8,29.9C550.1,295.4,550.1,306.1,550.1,316.9z"/>
	<path d="M300.1,301.2c0,50.3,0,100.6,0,150.9c0,13.8-7.9,23.3-20.6,24.7c-7.1,0.8-12.9-2-18.3-6.5c-37.4-31.1-75.1-61.9-112.3-93.3
		c-7-5.9-13.8-8.8-23.1-8.4c-17.1,0.7-34.2,0.3-51.3,0.2c-15.4-0.1-24.6-9.3-24.6-24.6c-0.1-28.8,0-57.6,0-86.4
		c0-15.3,9.4-24.7,24.6-24.8c20-0.1,40,0.1,60.1-0.1c2.5,0,5.4-1.1,7.4-2.7c39.7-32.7,79.2-65.5,118.9-98.3
		c11.9-9.9,26.1-8.9,34.8,2.4c3.8,4.9,4.5,10.6,4.5,16.6C300.1,200.9,300.1,251,300.1,301.2z"/>
	<path d="M440.3,300.5c-0.3,40-12.3,76.2-35.8,108.4c-7.5,10.3-21,12.8-31.2,6.1c-12.7-8.4-16.5-22-9.9-33.7
		c6.6-11.7,14.5-23.1,18.9-35.6c15.4-43.6,9.4-84.8-17.4-122.7c-1.3-1.9-2.7-3.6-4.1-5.5c-5.9-8.4-7-17.3-1.3-26
		c5.9-9.1,13.8-15.1,25.6-13.4c6,0.9,10.7,3.8,14.4,8.4c21.7,27,35,57.6,39.1,92.1C439.5,285.8,439.8,293.2,440.3,300.5z"/>
</g>
</svg>
