<?xml version="1.0" encoding="utf-8"?>
<!-- Generator: Adobe Illustrator 24.3.0, SVG Export Plug-In . SVG Version: 6.00 Build 0)  -->
<svg version="1.1" id="Layer_1" xmlns="http://www.w3.org/2000/svg" xmlns:xlink="http://www.w3.org/1999/xlink" x="0px" y="0px"
	 viewBox="0 0 600 600" style="enable-background:new 0 0 600 600;" xml:space="preserve">
<g>
	<path d="M248.8,57.3c34.1,0,68.3,0,102.4,0C362,61,367.4,68.6,368.7,80c1.8,16,4.7,31.8,6.7,47.8c0.4,3.1,1.8,4.5,4.3,5.9
		c8.3,4.6,16.4,9.3,24.5,14.3c2.4,1.5,4.3,1.7,6.9,0.6c15.3-6.3,30.7-12.3,46-18.5c14-5.6,23.6-2.3,31.1,10.7
		c14.5,25.1,29.1,50.2,43.6,75.4c7.5,13,5.3,23.6-6.5,32.8c-12.9,10.1-25.9,20.2-38.7,30.4c-1.5,1.2-2.7,3.8-2.8,5.7
		c-0.3,9.9-0.3,19.9,0,29.8c0.1,2,1.3,4.5,2.8,5.7c13.1,10.5,26.3,20.7,39.5,31c10.9,8.6,13,19.3,6.1,31.3
		c-14.7,25.6-29.4,51.1-44.2,76.6c-7.2,12.4-17.2,15.7-30.5,10.4c-15.5-6.2-31-12.5-46.6-18.5c-1.7-0.7-4.4-0.7-6,0.1
		c-9,4.9-17.8,10.1-26.6,15.4c-1.3,0.8-2.5,2.7-2.8,4.3c-2.6,17-5.1,34-7.5,51c-1.8,12.9-10,20.3-23,20.3c-30.2,0-60.3,0-90.5,0
		c-13,0-21.3-7.5-23-20.3c-2.3-17-4.9-34-7.5-51c-0.3-1.6-1.7-3.6-3.2-4.5c-8.5-5.2-17-10.2-25.7-14.9c-1.7-0.9-4.5-1.1-6.4-0.4
		c-15.4,5.9-30.8,12.2-46.1,18.3c-14.1,5.6-23.6,2.4-31.2-10.6c-14.5-25.1-29.1-50.2-43.6-75.4c-7.5-13-5.4-23.6,6.4-32.8
		c13-10.1,25.9-20.1,38.7-30.4c1.5-1.2,2.8-3.8,2.8-5.7c0.3-9.9,0.3-19.9,0-29.8c-0.1-2-1.2-4.5-2.8-5.7
		c-12.9-10.4-26.1-20.5-39.1-30.7c-11.4-8.9-13.5-19.6-6.3-32c14.6-25.4,29.3-50.8,44-76.2c7.2-12.3,17.3-15.8,30.5-10.5
		c15.7,6.3,31.3,12.6,47,18.7c1.7,0.7,4.3,0.4,5.9-0.5c8.7-4.8,17.3-9.8,25.7-15c1.5-0.9,3-2.8,3.2-4.4c2.4-15.3,4.9-30.5,6.6-45.9
		C232.1,70.7,236.4,61.3,248.8,57.3z M380.7,300.4c0.2-44.6-35.6-80.9-80.1-81.1c-44.6-0.2-80.9,35.6-81.2,80
		c-0.3,44.8,35.7,81.2,80.4,81.3C344.3,380.9,380.5,345,380.7,300.4z"/>
</g>
</svg>
