<?xml version="1.0" encoding="utf-8"?>
<!-- Generator: Adobe Illustrator 24.3.0, SVG Export Plug-In . SVG Version: 6.00 Build 0)  -->
<svg version="1.1" id="Layer_1" xmlns="http://www.w3.org/2000/svg" xmlns:xlink="http://www.w3.org/1999/xlink" x="0px" y="0px"
	 viewBox="0 0 600 600" style="enable-background:new 0 0 600 600;" xml:space="preserve" fill="#ffffff">
<g>
	<path d="M50.5,286.2c0-10.7,0-21.4,0-32.1c0.3-1.1,0.7-2.1,0.9-3.2c1.6-10.1,2.6-20.2,4.9-30.1c27.6-119.6,150-193.8,268.7-163
		c92.9,24.1,159,103.9,165.1,199.2c2.8,43.8-6.8,84.7-28.8,122.5c-6.7,11.6-14.8,22.3-22.6,33.8c1,0.9,2.4,2,3.7,3.2
		c32.9,32.7,65.8,65.5,98.8,98.2c1.7,1.7,3.5,3.4,4.9,5.4c7.2,9.8,2.4,24.1-9.1,27.7c-1.7,0.5-3.4,0.9-5.1,1.4c-0.3,0-0.6,0-1,0
		c-7.6-1.3-12.8-6.2-18-11.4c-32.3-32.3-64.7-64.4-97-96.5c-1.1-1.1-2.3-2.1-3.5-3.2c-1.5,1.2-2.8,2.2-4.1,3.2
		c-53.7,41.9-114.3,56.7-181.1,44.1C184,477.3,146.7,457,115.6,426c-32.2-32-52.8-70.2-61.2-114.9C52.8,302.8,51.8,294.5,50.5,286.2
		z M454.2,270.3c-0.2-101.1-82.3-183-183.5-182.9c-100.8,0-183.9,80.4-183.8,183.1c0.1,101.6,81.2,182.7,183.5,182.9
		C373.3,453.6,454.2,370.6,454.2,270.3z"/>
</g>
</svg>
