<?xml version="1.0" encoding="utf-8"?>
<!-- Generator: Adobe Illustrator 24.3.0, SVG Export Plug-In . SVG Version: 6.00 Build 0)  -->
<svg version="1.1" id="Layer_1" xmlns="http://www.w3.org/2000/svg" xmlns:xlink="http://www.w3.org/1999/xlink" x="0px" y="0px"
	 viewBox="0 0 841.9 841.9" style="enable-background:new 0 0 841.9 841.9;" xml:space="preserve">
<style type="text/css">
	.st0{fill:#F38F1C;}
	.st1{fill:#FFFFFF;}
	.st2{opacity:0.4;fill:#808181;}
	.st3{fill:#FBBB10;}
	.st4{fill:#F59A2F;}
</style>
<g id="XMLID_31_">
	<path id="XMLID_64_" class="st0" d="M381.5,193.2L196,355.3L387.8,517c19.2,16.2,47.2,16.2,66.3,0l191.8-161.7L460.4,193.2
		C437.8,173.4,404.1,173.4,381.5,193.2z"/>
	<g id="XMLID_51_">
		<rect id="XMLID_63_" x="274.3" y="242.5" class="st1" width="293.3" height="323.8"/>
		<path id="XMLID_62_" class="st2" d="M415.3,300H312.9c-2.6,0-4.6-2.1-4.6-4.6v-2.7c0-2.6,2.1-4.6,4.6-4.6h102.3
			c2.6,0,4.6,2.1,4.6,4.6v2.7C419.9,297.9,417.8,300,415.3,300z"/>
		<path id="XMLID_61_" class="st2" d="M444.8,330H312.9c-2.6,0-4.6-2.1-4.6-4.6v-2.7c0-2.6,2.1-4.6,4.6-4.6h131.8
			c2.6,0,4.6,2.1,4.6,4.6v2.7C449.4,327.9,447.3,330,444.8,330z"/>
		<path id="XMLID_60_" class="st2" d="M526.1,330h-64c-2.6,0-4.6-2.1-4.6-4.6v-2.7c0-2.6,2.1-4.6,4.6-4.6h64c2.6,0,4.6,2.1,4.6,4.6
			v2.7C530.7,327.9,528.6,330,526.1,330z"/>
		<path id="XMLID_59_" class="st2" d="M526.1,300h-94.3c-2.6,0-4.6-2.1-4.6-4.6v-2.7c0-2.6,2.1-4.6,4.6-4.6h94.3
			c2.6,0,4.6,2.1,4.6,4.6v2.7C530.7,297.9,528.6,300,526.1,300z"/>
		<path id="XMLID_58_" class="st2" d="M526.1,395.5H409.1c-2.6,0-4.6-2.1-4.6-4.6v-2.7c0-2.6,2.1-4.6,4.6-4.6h116.9
			c2.6,0,4.6,2.1,4.6,4.6v2.7C530.7,393.4,528.6,395.5,526.1,395.5z"/>
		<path id="XMLID_57_" class="st2" d="M415.3,363.1H312.9c-2.6,0-4.6-2.1-4.6-4.6v-2.7c0-2.6,2.1-4.6,4.6-4.6h102.3
			c2.6,0,4.6,2.1,4.6,4.6v2.7C419.9,361,417.8,363.1,415.3,363.1z"/>
		<path id="XMLID_56_" class="st2" d="M471.7,363.1h-37.9c-2.6,0-4.6-2.1-4.6-4.6v-2.7c0-2.6,2.1-4.6,4.6-4.6h37.9
			c2.6,0,4.6,2.1,4.6,4.6v2.7C476.3,361,474.3,363.1,471.7,363.1z"/>
		<path id="XMLID_54_" class="st2" d="M526.1,363.1h-35.7c-2.6,0-4.6-2.1-4.6-4.6v-2.7c0-2.6,2.1-4.6,4.6-4.6h35.7
			c2.6,0,4.6,2.1,4.6,4.6v2.7C530.7,361,528.6,363.1,526.1,363.1z"/>
		<path id="XMLID_53_" class="st2" d="M389.7,395.5h-76.7c-2.6,0-4.6-2.1-4.6-4.6v-2.7c0-2.6,2.1-4.6,4.6-4.6h76.7
			c2.6,0,4.6,2.1,4.6,4.6v2.7C394.3,393.4,392.2,395.5,389.7,395.5z"/>
		<path id="XMLID_52_" class="st2" d="M415.3,430.4H312.9c-2.6,0-4.6-2.1-4.6-4.6V423c0-2.6,2.1-4.6,4.6-4.6h102.3
			c2.6,0,4.6,2.1,4.6,4.6v2.7C419.9,428.3,417.8,430.4,415.3,430.4z"/>
		<path id="XMLID_55_" class="st2" d="M489.4,430.4h-57.5c-2.6,0-4.6-2.1-4.6-4.6V423c0-2.6,2.1-4.6,4.6-4.6h57.5
			c2.6,0,4.6,2.1,4.6,4.6v2.7C494.1,428.3,492,430.4,489.4,430.4z"/>
	</g>
	<g id="XMLID_21_">
		<path id="XMLID_50_" class="st3" d="M379.8,510.2L196,355.3c-7.5,7-12.3,17-12.3,28.1V625c0,11.7,5.2,22.1,13.4,29.2l195.4-135.7
			C388,516.3,383.7,513.6,379.8,510.2z"/>
		<path id="XMLID_26_" class="st3" d="M658.2,625V383.5c0-11.1-4.7-21.1-12.3-28.1L462.1,510.2c-4,3.3-8.3,6.1-12.7,8.3l195.4,135.7
			C653,647.1,658.2,636.7,658.2,625z"/>
		<path id="XMLID_22_" class="st4" d="M449.4,518.6l-28.5-19.8l-28.5,19.8L197.1,654.2c6.7,5.8,15.5,9.3,25.1,9.3h397.5
			c9.6,0,18.3-3.5,25.1-9.3L449.4,518.6z"/>
	</g>
</g>
</svg>
