<?xml version="1.0" encoding="utf-8"?>
<!-- Generator: Adobe Illustrator 24.3.0, SVG Export Plug-In . SVG Version: 6.00 Build 0)  -->
<svg version="1.1" id="Layer_1" xmlns="http://www.w3.org/2000/svg" xmlns:xlink="http://www.w3.org/1999/xlink" x="0px" y="0px"
	 viewBox="0 0 841.9 841.9" style="enable-background:new 0 0 841.9 841.9;" xml:space="preserve">
<style type="text/css">
	.st0{fill:#FBBB10;}
	.st1{fill:#F59A2F;}
	.st2{fill:#FFD834;}
</style>
<g id="XMLID_1_">
	<path id="XMLID_5_" class="st0" d="M376.3,427.4L177.2,259.6c-8.2,7.6-13.3,18.4-13.3,30.5v261.7c0,12.6,5.6,23.9,14.5,31.6
		l211.6-147C385.3,434,380.6,431.1,376.3,427.4z"/>
	<path id="XMLID_4_" class="st0" d="M677.9,551.8V290.1c0-12-5.1-22.9-13.3-30.5L465.6,427.4c-4.3,3.6-8.9,6.6-13.8,9l211.6,147
		C672.3,575.8,677.9,564.4,677.9,551.8z"/>
	<path id="XMLID_3_" class="st1" d="M451.8,436.4L420.9,415l-30.8,21.4l-211.6,147c7.3,6.3,16.8,10.1,27.1,10.1h430.6
		c10.4,0,19.9-3.8,27.1-10.1L451.8,436.4z"/>
	<path id="XMLID_2_" class="st2" d="M465.6,427.4l199.1-167.8c-7.4-6.9-17.4-11.2-28.4-11.2H205.6c-11,0-20.9,4.3-28.4,11.2
		l199.1,167.8C402.1,449.2,439.8,449.2,465.6,427.4z"/>
</g>
</svg>
